<mxfile host="Electron" modified="2024-04-14T16:03:18.257Z" agent="Mozilla/5.0 (Windows NT 10.0; Win64; x64) AppleWebKit/537.36 (KHTML, like Gecko) draw.io/24.1.0 Chrome/120.0.6099.109 Electron/28.1.0 Safari/537.36" etag="ICDFPVMIIFqnePrg-iMs" version="24.1.0" type="device">
  <diagram name="第 1 页" id="goDqV-48EJWbhHV0XhgU">
    <mxGraphModel dx="1278" dy="606" grid="1" gridSize="10" guides="1" tooltips="1" connect="1" arrows="1" fold="1" page="1" pageScale="1" pageWidth="827" pageHeight="1169" math="0" shadow="0">
      <root>
        <mxCell id="0" />
        <mxCell id="1" parent="0" />
        <mxCell id="6tewU8QfCfnWGDu3ESqo-10" style="edgeStyle=orthogonalEdgeStyle;rounded=0;orthogonalLoop=1;jettySize=auto;html=1;exitX=1;exitY=0.5;exitDx=0;exitDy=0;" edge="1" parent="1" source="6tewU8QfCfnWGDu3ESqo-1" target="6tewU8QfCfnWGDu3ESqo-6">
          <mxGeometry relative="1" as="geometry" />
        </mxCell>
        <mxCell id="6tewU8QfCfnWGDu3ESqo-1" value="2.1摄像头图像" style="rounded=1;whiteSpace=wrap;html=1;" vertex="1" parent="1">
          <mxGeometry x="380" y="240" width="90" height="30" as="geometry" />
        </mxCell>
        <mxCell id="6tewU8QfCfnWGDu3ESqo-4" value="" style="endArrow=classic;html=1;rounded=0;entryX=0;entryY=0.5;entryDx=0;entryDy=0;" edge="1" parent="1" target="6tewU8QfCfnWGDu3ESqo-1">
          <mxGeometry width="50" height="50" relative="1" as="geometry">
            <mxPoint x="300" y="255" as="sourcePoint" />
            <mxPoint x="250" y="260" as="targetPoint" />
          </mxGeometry>
        </mxCell>
        <mxCell id="6tewU8QfCfnWGDu3ESqo-5" value="图像" style="edgeLabel;html=1;align=center;verticalAlign=middle;resizable=0;points=[];" vertex="1" connectable="0" parent="6tewU8QfCfnWGDu3ESqo-4">
          <mxGeometry x="-0.29" y="2" relative="1" as="geometry">
            <mxPoint x="11" y="-13" as="offset" />
          </mxGeometry>
        </mxCell>
        <mxCell id="6tewU8QfCfnWGDu3ESqo-13" value="图像" style="edgeLabel;html=1;align=center;verticalAlign=middle;resizable=0;points=[];" vertex="1" connectable="0" parent="6tewU8QfCfnWGDu3ESqo-4">
          <mxGeometry x="-0.29" y="2" relative="1" as="geometry">
            <mxPoint x="382" y="-13" as="offset" />
          </mxGeometry>
        </mxCell>
        <mxCell id="6tewU8QfCfnWGDu3ESqo-11" style="edgeStyle=orthogonalEdgeStyle;rounded=0;orthogonalLoop=1;jettySize=auto;html=1;exitX=1;exitY=0.5;exitDx=0;exitDy=0;" edge="1" parent="1" source="6tewU8QfCfnWGDu3ESqo-6">
          <mxGeometry relative="1" as="geometry">
            <mxPoint x="740" y="255" as="targetPoint" />
          </mxGeometry>
        </mxCell>
        <mxCell id="6tewU8QfCfnWGDu3ESqo-6" value="2.2图像格式转换" style="rounded=1;whiteSpace=wrap;html=1;" vertex="1" parent="1">
          <mxGeometry x="570" y="240" width="110" height="30" as="geometry" />
        </mxCell>
      </root>
    </mxGraphModel>
  </diagram>
</mxfile>
